<?xml version="1.0" encoding="utf-8"?><!-- Uploaded to: SVG Repo, www.svgrepo.com, Generator: SVG Repo Mixer Tools -->
<svg width="800px" height="800px" viewBox="0 0 320 320" fill="none" xmlns="http://www.w3.org/2000/svg">
<path fill-rule="evenodd" clip-rule="evenodd" d="M112.531 26.2808C86.0292 28.2778 30.7139 53.1725 32.0228 94.1736C32.9498 123.21 44.0467 144.46 73.0269 147.09C82.5216 147.952 90.3887 146.117 97.5298 143.754V111.646H47.0243C46.472 111.646 46.0243 111.198 46.0243 110.646V98.1672L91.3706 81.7507C91.4756 81.7127 91.5862 81.6925 91.6978 81.691L256.125 79.5255C248.322 66.1204 234.869 59.7279 216.042 59.7279C205.238 59.7279 193.299 65.2552 184.387 69.3816C177.453 72.5918 172.35 74.9541 171.038 73.2067C167.541 68.552 166.859 64.2155 166.164 59.7961C165.371 54.7547 164.561 49.6055 159.536 43.7532C146.789 28.9061 132.063 24.809 112.531 26.2808ZM262.747 104.255L251.546 111.646H230.044H203.041V206.859L259.547 207.994V222.069C259.547 222.327 259.448 222.575 259.27 222.761L227.544 255.918L119.893 252.488C121.37 265.185 127.531 276.883 139.534 284.872C166.537 302.844 200.855 289.535 209.542 284.872C262.547 256.417 292.051 197.011 287.55 171.551C284.449 154.009 270.334 148.383 258.321 143.596C252.899 141.435 247.905 139.444 244.545 136.606C242.414 134.806 244.682 132.844 248.257 129.753C253.714 125.034 262.216 117.683 262.747 104.255ZM243.045 167.558C243.322 160.113 237.501 153.855 230.044 153.58C222.891 154.417 217.778 160.373 218.043 167.558C218.297 174.451 223.14 180.261 230.044 180.537C237.219 180.824 242.78 174.721 243.045 167.558Z" fill="#E95B47"/>
<path d="M46.0241 98.1672L91.3704 81.7506C91.4754 81.7126 91.586 81.6924 91.6977 81.691L281.049 79.1971M46.0241 98.1672V110.646C46.0241 111.198 46.4719 111.646 47.0241 111.646H97.5297M46.0241 98.1672H176.538M250.546 98.1672L281.049 79.1971M250.546 98.1672L251.546 111.646M250.546 98.1672H226.544M281.049 79.1971V91.6384C281.049 91.9744 280.881 92.288 280.6 92.4731L251.546 111.646M251.546 111.646H230.044M97.5297 111.646H203.041M97.5297 111.646V204.74M203.041 111.646H230.044M203.041 111.646V206.859M259.547 207.994V222.069C259.547 222.327 259.448 222.575 259.27 222.761L227.544 255.918M259.547 207.994L227.544 243.438M259.547 207.994L203.041 206.859M227.544 255.918L40.4916 249.958C39.952 249.941 39.5234 249.499 39.5234 248.959V237.447M227.544 255.918V243.438M39.5234 237.447L85.2583 204.693C85.4336 204.567 85.6449 204.501 85.8606 204.506L97.5297 204.74M39.5234 237.447L227.544 243.438M230.044 111.646C230.044 111.646 230.044 137.203 230.044 153.58M230.044 153.58C222.891 154.417 217.778 160.373 218.043 167.558C218.297 174.451 223.14 180.261 230.044 180.537C237.219 180.824 242.78 174.721 243.045 167.558C243.322 160.113 237.501 153.855 230.044 153.58ZM97.5297 204.74V220.044C97.5297 220.318 97.6336 220.574 97.8367 220.759C117.719 238.86 191.452 238.357 202.895 220.706C202.995 220.551 203.041 220.376 203.041 220.192V206.859M172.038 121.131C173.745 120.75 175.217 120.659 180.539 121.131M189.54 123.627C190.638 127.194 190.615 129.05 189.54 132.114M120.032 190.521C120.464 194.218 120.415 196.313 120.032 200.006M109.531 195.014C109.326 196.73 109.288 197.78 109.531 200.006M119.032 212.986C119.237 215.549 119.31 216.94 119.032 218.976M228.544 215.482C232.179 214.376 233.879 214.025 235.545 214.483M224.043 229.959C224.075 228.225 224.842 227.159 228.544 224.967M255.547 136.107C261.99 135.465 264.997 136.17 268.548 140.6M249.046 145.093C254.205 145.836 256.43 147.296 258.047 153.58" stroke="#000000" stroke-width="5" stroke-linecap="round"/>
</svg>