<?xml version="1.0" encoding="utf-8"?><!-- Uploaded to: SVG Repo, www.svgrepo.com, Generator: SVG Repo Mixer Tools -->
<svg width="800px" height="800px" viewBox="0 0 320 320" fill="none" xmlns="http://www.w3.org/2000/svg">
<path fill-rule="evenodd" clip-rule="evenodd" d="M164.391 6.55509C133.551 2.42734 110.254 21.7924 98.5978 48.9429C93.6168 60.5448 89.2987 74.9506 86.1126 91.0286C92.1961 88.2624 96.4161 86.3983 96.4161 86.3983C98.8373 85.0698 120.959 80.0833 131.435 78.9181C144.96 72.5691 163.086 62.9612 163.836 62.0351C164.763 63.1797 183.008 76.1311 195.106 83.9049C200.053 84.734 209.658 87.0956 216.203 88.8965C211.728 78.1696 210.937 67.3417 210.202 57.2828C209.392 46.1996 208.651 36.0501 203.124 27.9983C193.607 14.1337 181.771 8.88131 164.391 6.55509ZM275.247 165.048C272.508 165.715 259.167 163.479 246.585 161.37C235.16 159.454 224.362 157.644 222.696 158.208C220.98 158.789 223.567 178.841 226.482 201.429C229.876 227.738 233.715 257.489 231.716 263.928C229.133 272.253 153.388 268.032 106.259 260.663C112.346 270.903 119.648 280.236 128.311 288.309C150.689 309.163 178.366 317.381 209.491 312.744C244.279 307.562 258.431 275.766 268.192 253.836L268.386 253.402C279.105 229.322 284.357 197.031 275.247 165.048ZM82.3301 184.99C86.0727 170.371 88.7903 158.945 87.3961 158.208C86.5981 157.786 83.9979 157.595 80.3993 157.525C80.6031 166.665 81.2279 175.866 82.3301 184.99ZM163.801 61.963C163.866 61.96 163.877 61.9847 163.836 62.0351C163.807 61.9994 163.795 61.9752 163.801 61.963Z" fill="#B2AB73"/>
<path d="M96.4164 86.3983C146.029 96.9594 173.702 98.6555 222.696 90.8864M96.4164 86.3983C96.4164 86.3983 43.3575 109.836 42.2963 113.826C41.2351 117.815 39.4327 153.15 40.174 156.213C40.9153 159.277 83.6821 156.245 87.3964 158.208C91.1107 160.171 65.6421 237.997 69.3563 249.965C73.0705 261.934 228.002 275.897 231.716 263.928C235.431 251.96 218.982 159.466 222.696 158.208C226.41 156.95 275.533 167.498 275.755 164.691C275.978 161.884 280 116.319 280 113.826C280 111.332 222.696 90.8864 222.696 90.8864M96.4164 86.3983C98.8376 85.0699 120.959 80.0833 131.435 78.9181M222.696 90.8864C220.112 89.7576 202.461 85.1375 195.106 83.9049M159.556 39.5224C154.292 36.3849 152.136 31.2256 153.72 25.5594C155.332 19.7939 160.157 16.7968 166.454 16.0845C173.934 15.2383 179.345 19.3174 182.902 25.5594C186.228 31.3964 184.898 36.1645 182.902 42.5145C179.786 52.4272 163.801 61.963 163.801 61.963M163.801 61.963C165.073 61.9056 145.697 72.2236 131.435 78.9181M163.801 61.963C163.619 62.3667 182.631 75.8886 195.106 83.9049M131.435 78.9181C155.842 78.9181 171.76 80.9128 195.106 83.9049M214.738 104.351C214.738 104.351 230.885 98.8635 236.492 90.8864C239.887 86.0552 236.895 80.4297 241.798 76.9234C245.518 74.2628 253.471 74.43 253.471 74.43M253.471 74.43C253.471 74.43 252.772 81.9102 253.471 83.4062C254.169 84.9023 274.591 85.8996 275.755 84.4036C276.92 82.9076 277.347 68.4459 276.286 67.4485C275.225 66.4511 256.124 66.4511 254.532 67.4485C252.94 68.4458 253.471 74.43 253.471 74.43ZM114.987 138.261H121.885M128.782 138.261H121.885M121.885 138.261L117.109 161.2M117.109 161.2H109.681M117.109 161.2H126.129M241.798 124.298C241.567 129.442 241.552 131.521 241.798 133.274M258.246 119.81C258.227 122.336 257.985 124.201 256.654 129.285M256.654 139.258C256.877 142.179 256.84 143.817 256.654 146.739M87.3964 232.511C87.7156 235.627 87.7308 237.375 87.3964 240.49M92.7022 244.978C95.4182 245.597 97.0461 245.576 100.13 244.978M156.199 220.931C131.792 242.873 107.915 238.385 100.487 212.952C117.501 195.807 143.465 196.994 156.199 220.931ZM156.199 220.931C156.199 220.931 175.831 240.208 178.484 239.881C181.137 239.553 188.034 206.494 184.851 204.973C181.667 203.453 156.199 220.931 156.199 220.931ZM118.527 211.955L116.935 216.443M170.168 150.229C171.976 150.512 177.805 140.565 183.963 143.248C188.588 145.262 188.799 149.372 187.678 151.725C183.826 159.808 170.942 169.247 170.699 169.179C170.455 169.111 156.21 154.066 154.251 151.725C151.752 148.741 152.843 142.821 157.965 141.752C162.74 140.754 168.361 149.946 170.168 150.229Z" stroke="#000000" stroke-width="5" stroke-linecap="round"/>
</svg>