<?xml version="1.0" encoding="utf-8"?><!-- Uploaded to: SVG Repo, www.svgrepo.com, Generator: SVG Repo Mixer Tools -->
<svg width="800px" height="800px" viewBox="0 0 320 320" fill="none" xmlns="http://www.w3.org/2000/svg">
<path fill-rule="evenodd" clip-rule="evenodd" d="M215.257 156.954L217.455 142.481C217.547 141.875 217.079 141.331 216.466 141.331H215.628C215.628 141.331 215.628 68.3141 209.124 68.4466C205.54 68.5196 204.386 90.6298 204.073 110.476C202.798 93.9351 200.958 73.9428 198.633 58.9904C210.343 51.639 223.298 49.6218 239.646 52.9713C279.725 61.1835 282.677 115.87 278.674 139.832C271.307 183.932 252.945 216.461 215.128 248.158C177.893 279.366 150.08 288.094 111.552 285.598C86.5009 283.975 66.4114 278.92 54.0099 257.144C45.2043 241.682 45.8207 227.457 52.1936 214.817C59.91 218.306 69.4825 218.172 85.5481 215.211C84.8675 214.554 84.1957 213.889 83.5317 213.214C90.5047 200.845 93.344 192.908 92.7248 186.563C99.1612 186.201 105.812 186.762 112.525 187.455C114.319 203.074 116.928 217.129 121.394 236.46C121.491 236.883 121.86 237.202 122.292 237.238C152.833 239.8 170.293 239.984 200.813 237.249C201.279 237.207 201.663 236.839 201.723 236.375C205.921 204.418 207.755 187.097 210.124 157.804H214.268C214.763 157.804 215.183 157.443 215.257 156.954ZM75.7431 190.464C73.473 191.502 71.2551 192.781 69.098 194.347C69.0777 194.808 69.0521 195.273 69.0211 195.742C68.6073 195.606 68.1997 195.469 67.7983 195.331C66.1664 196.62 64.5712 198.081 63.0165 199.736C62.5591 200.223 62.1096 200.713 61.6683 201.206C65.7856 201.074 69.9234 201.424 74.0248 202.494C75.5689 204.491 77.1103 206.397 78.6653 208.222C76.9625 201.073 75.946 195.388 75.7431 190.464ZM185.919 69.8199C184.723 71.2901 183.678 72.812 182.77 74.3802C184.4 90.9246 185.279 111.964 185.719 125.998C185.428 111.29 185.19 88.6056 185.919 69.8199ZM102.079 191.252C93.7657 204.313 92.0398 211.689 95.4884 223.697C96.6437 224.567 97.8275 225.42 99.0431 226.26C82.046 221.781 73.1829 222.472 59.6007 229.608C59.0394 229.903 58.8924 230.638 59.3343 231.092C70.8792 242.967 107.341 248.596 99.0431 226.26C100.34 227.156 101.673 228.036 103.046 228.901C112.61 213.576 110.322 205.225 103.81 191.364C103.478 190.658 102.498 190.593 102.079 191.252Z" fill="#E95B47"/>
<path d="M110.051 157.804H105.407C104.912 157.804 104.492 157.443 104.418 156.954L102.22 142.48C102.128 141.875 102.597 141.33 103.209 141.33H109.05M110.051 157.804C111.939 188.708 114.372 206.061 121.394 236.459C121.491 236.882 121.86 237.202 122.293 237.238C152.833 239.8 170.293 239.983 200.813 237.249C201.279 237.207 201.663 236.838 201.724 236.374C205.921 204.417 207.755 187.097 210.124 157.804M110.051 157.804H210.124M210.124 157.804H214.268C214.763 157.804 215.183 157.443 215.257 156.954L217.455 142.48C217.547 141.875 217.079 141.33 216.467 141.33H215.628M109.05 141.33C109.05 141.33 106.048 58.9615 116.556 58.9614C127.064 58.9614 127.564 141.33 127.564 141.33M109.05 141.33H127.564M127.564 141.33C127.564 141.33 125.062 39.4927 136.571 39.4927C148.079 39.4927 146.578 141.33 146.578 141.33M127.564 141.33H146.578M146.578 141.33C146.578 141.33 144.076 35 157.086 35C170.095 35 168.594 141.33 168.594 141.33M146.578 141.33H168.594M168.594 141.33C168.594 141.33 168.594 48.9776 176.6 48.9776C184.606 48.9776 186.107 141.33 186.107 141.33M168.594 141.33H186.107M186.107 141.33C186.107 141.33 182.604 36.9968 191.611 36.9968C200.617 36.9968 206.121 141.33 206.121 141.33M186.107 141.33H204.12M206.121 141.33H204.12M206.121 141.33H215.628M204.12 141.33C204.12 141.33 202.619 68.5789 209.124 68.4463C215.628 68.3138 215.628 141.33 215.628 141.33M131.067 213.214C131.137 214.781 131.154 215.595 131.067 216.708M136.571 223.697C137.959 223.777 139.312 223.468 142.075 222.699M194.613 170.782C194.773 172.921 194.816 174.178 194.613 176.773M183.605 176.773C183.19 180.68 183.038 182.605 183.605 183.262M192.111 188.753C192.075 190.284 192.064 191.469 192.111 195.742M69.0212 195.742C48.59 189.031 43.3913 179.797 41.1543 158.344C41.0792 157.624 41.7792 157.067 42.4611 157.31C62.135 164.323 70.3272 175.943 69.0212 195.742ZM69.0212 195.742C72.2742 200.303 75.4406 204.436 78.6654 208.222M147.579 248.158C128.581 242.247 114.444 236.083 103.046 228.9M78.6654 208.222C74.3721 190.196 74.4419 181.485 80.9134 170.78C81.2314 170.254 81.9532 170.156 82.4104 170.567C95.0335 181.918 97.0456 189.241 83.5318 213.214M78.6654 208.222C80.59 210.481 81.5348 211.186 83.5318 213.214M83.5318 213.214C84.1958 213.888 84.8676 214.554 85.5482 215.211M74.0249 202.494C63.0978 199.644 51.9125 201.897 41.5432 204.79C40.8304 204.989 40.5809 205.868 41.0893 206.406C51.7572 217.691 61.1889 219.7 85.5482 215.211M85.5482 215.211C88.65 218.205 91.9338 221.023 95.4885 223.697M95.4885 223.697C92.04 211.688 93.7658 204.313 102.079 191.251C102.498 190.593 103.478 190.657 103.81 191.364C110.322 205.225 112.61 213.576 103.046 228.9M95.4885 223.697C96.6438 224.566 97.8276 225.42 99.0432 226.26M103.046 228.9C101.673 228.035 100.34 227.156 99.0432 226.26M99.0432 226.26C82.0461 221.78 73.183 222.472 59.6008 229.607C59.0395 229.902 58.8925 230.638 59.3344 231.092C70.8793 242.967 107.341 248.596 99.0432 226.26Z" stroke="#000000" stroke-width="5" stroke-linecap="round"/>
</svg>