<?xml version="1.0" encoding="utf-8"?>
<!-- Uploaded to: SVG Repo, www.svgrepo.com, Generator: SVG Repo Mixer Tools -->
<svg width="800px" height="800px" viewBox="0 0 1024 1024" class="icon"  version="1.1" xmlns="http://www.w3.org/2000/svg"><path d="M551.424 0H176.128c-47.104 0-85.504 38.4-85.504 85.504v852.992c0 47.104 38.4 85.504 85.504 85.504h375.296c47.104 0 85.504-38.4 85.504-85.504V85.504c0-47.104-38.4-85.504-85.504-85.504M312.832 68.096h102.4c9.216 0 16.896 7.68 16.896 16.896s-7.68 16.896-16.896 16.896h-102.4c-9.216 0-16.896-7.68-16.896-16.896-0.512-9.216 7.168-16.896 16.896-16.896m51.2 921.6c-28.16 0-51.2-23.04-51.2-51.2s23.04-51.2 51.2-51.2 51.2 23.04 51.2 51.2-23.04 51.2-51.2 51.2m238.592-136.704H124.928V170.496h477.696v682.496z" fill="#FFA28D" /><path d="M853.504 66.56h-218.112c1.536 6.144 2.048 12.288 2.048 18.432v45.056h88.576c8.704 0 15.872 7.168 15.872 15.872s-7.168 15.872-15.872 15.872h-88.576v64H901.12v637.952h-264.192v54.784c8.192-13.824 23.552-23.04 40.448-23.04 26.624 0 47.616 21.504 47.616 47.616 0 26.624-21.504 47.616-47.616 47.616-19.968 0-36.864-12.288-44.032-29.696-10.24 35.328-43.008 61.44-81.92 61.44h301.568c44.032 0 79.872-35.84 79.872-79.872V146.432c0.512-44.032-35.84-79.872-79.36-79.872z" fill="#5FFFBA" /></svg>