<?xml version="1.0" ?><!DOCTYPE svg  PUBLIC '-//W3C//DTD SVG 1.1//EN'  'http://www.w3.org/Graphics/SVG/1.1/DTD/svg11.dtd'><!-- Uploaded to: SVG Repo, www.svgrepo.com, Generator: SVG Repo Mixer Tools -->
<svg fill="#000000" width="800px" height="800px" viewBox="0 0 32 32" style="fill-rule:evenodd;clip-rule:evenodd;stroke-linejoin:round;stroke-miterlimit:2;" version="1.1" xml:space="preserve" xmlns="http://www.w3.org/2000/svg" xmlns:serif="http://www.serif.com/" xmlns:xlink="http://www.w3.org/1999/xlink"><path d="M15.003,10l-1.004,0c-0.552,0 -1,0.448 -1,1c-0,0.552 0.448,1 1,1l1.009,0l0.002,1.009c0.001,0.552 0.451,0.999 1.003,0.997c0.551,-0.001 0.998,-0.45 0.997,-1.002l-0.002,-1.004l1.003,0c0.552,0 1,-0.448 1,-1c0,-0.552 -0.448,-1 -1,-1l-1.008,-0l-0.003,-1.009c-0.001,-0.552 -0.451,-0.999 -1.002,-0.997c-0.552,0.001 -0.999,0.45 -0.998,1.002l0.003,1.004Z"/><path d="M8,22.004l0,3.009c0,1.657 1.343,3 3,3l10,-0c1.657,-0 3,-1.343 3,-3l-0,-3.009l1.575,-0c0.897,-0 1.748,-0.403 2.318,-1.096c0.57,-0.694 0.799,-1.607 0.624,-2.488l-1.388,-7.003c-0.279,-1.405 -1.511,-2.417 -2.943,-2.417l-1.474,0c-0.858,-2.895 -3.54,-5.01 -6.712,-5.01c-3.172,0 -5.854,2.115 -6.712,5.01l-1.454,-0c-1.432,-0 -2.664,1.012 -2.942,2.417c-0.366,1.844 -0.969,4.883 -1.389,7.003c-0.175,0.881 0.054,1.794 0.624,2.488c0.57,0.693 1.421,1.096 2.319,1.096l1.554,-0Zm4.999,4.009l-0,-4.009l-2.999,-0l0,3.009c0,0.552 0.448,1 1,1l1.999,-0Zm2,-4.009l-0,4.009l2.012,-0l0,-4.009l-2.012,-0Zm7.001,-0l-2.989,-0l0,4.009l1.989,-0c0.552,-0 1,-0.448 1,-1l-0,-3.009Zm-13,-11.004l-1.166,-0c-0.477,-0 -0.888,0.337 -0.981,0.806c0,-0 -1.388,7.003 -1.388,7.003c-0.059,0.294 0.018,0.598 0.208,0.829c0.19,0.232 0.473,0.366 0.773,0.366l19.129,-0c0.299,-0 0.582,-0.134 0.772,-0.366c0.19,-0.231 0.267,-0.535 0.208,-0.829l-1.388,-7.003c-0.093,-0.469 -0.504,-0.806 -0.981,-0.806l-1.186,0c-0.005,3.859 -3.14,6.99 -7,6.99c-3.86,0 -6.995,-3.131 -7,-6.99Zm7,-5.01c2.76,0 5,2.241 5,5c0,2.76 -2.24,5 -5,5c-2.76,0 -5,-2.24 -5,-5c0,-2.759 2.24,-5 5,-5Z"/></svg>