<?xml version="1.0" encoding="utf-8"?>
<!-- Uploaded to: SVG Repo, www.svgrepo.com, Generator: SVG Repo Mixer Tools -->
<svg width="800px" height="800px" viewBox="0 -398 1820 1820" class="icon"  version="1.1" xmlns="http://www.w3.org/2000/svg"><path d="M916.859259 217.125926h350.435556v60.681481H916.859259z" fill="#5FFFBA" /><path d="M805.641481 550.874074H603.306667c-27.875556 0-50.536296 22.660741-50.536297 50.536296v202.24c0 27.875556 22.660741 50.536296 50.536297 50.536297h202.24c27.875556 0 50.536296-22.660741 50.536296-50.536297V601.41037c0.094815-27.875556-22.565926-50.536296-50.441482-50.536296zM795.496296 765.44c0 15.54963-12.61037 28.16-28.16 28.16H641.611852c-15.54963 0-28.16-12.61037-28.16-28.16V639.715556c0-15.54963 12.61037-28.16 28.16-28.16h125.819259c15.54963 0 28.16 12.61037 28.16 28.16v125.724444z" fill="#FFD561" /><path d="M916.859259 596.385185h350.435556v60.681482H916.859259z" fill="#5FFFBA" /><path d="M805.641481 171.614815H603.306667c-27.875556 0-50.536296 22.660741-50.536297 50.536296v202.24c0 27.875556 22.660741 50.536296 50.536297 50.536296h202.24c27.875556 0 50.536296-22.660741 50.536296-50.536296V222.151111c0.094815-27.875556-22.565926-50.536296-50.441482-50.536296zM795.496296 386.180741c0 15.54963-12.61037 28.16-28.16 28.16H641.611852c-15.54963 0-28.16-12.61037-28.16-28.16V260.456296c0-15.54963 12.61037-28.16 28.16-28.16h125.819259c15.54963 0 28.16 12.61037 28.16 28.16v125.724445z" fill="#FFA28D" /><path d="M916.859259 368.82963h350.435556v60.681481H916.859259zM916.859259 748.088889h350.435556v60.681481H916.859259z" fill="#5FFFBA" /></svg>