<?xml version="1.0" encoding="utf-8"?>
<!-- Uploaded to: SVG Repo, www.svgrepo.com, Generator: SVG Repo Mixer Tools -->
<svg width="800px" height="800px" viewBox="0 -398 1820 1820" class="icon"  version="1.1" xmlns="http://www.w3.org/2000/svg"><path d="M1145.268148 586.714074c-31.383704 0-65.232593-8.438519-66.180741-41.434074l-30.625185 0.094815c0 50.441481 48.071111 65.137778 94.435556 65.137778 41.339259 0 88.272593-13.653333 88.272592-60.207408 0-37.831111-45.700741-44.278519-61.819259-47.122963l-50.346667-7.774815c-25.315556-3.887407-33.564444-12.894815-33.564444-24.177777 0-21.617778 25.6-30.056296 47.691852-30.056297 49.208889 0 58.785185 19.721481 61.060741 33.943704h30.53037c-3.128889-44.278519-45.985185-57.647407-87.514074-57.647407-52.622222 0-82.299259 22.091852-82.299259 55.845926 0 35.745185 36.598519 44.752593 61.06074 48.071111l46.648889 6.921481c23.798519 3.887407 38.21037 10.524444 38.210371 27.211852-0.094815 19.816296-23.324444 31.194074-55.561482 31.194074z" fill="#FFA28D" /><path d="M640.663704 278.660741c30.814815-28.065185 66.085926-50.725926 104.96-67.602963-28.444444 34.228148-51.863704 76.98963-68.930371 125.819259h61.81926c9.765926-24.936296 21.522963-47.786667 35.081481-68.551111 19.721481-29.771852 43.045926-53.76 67.318519-69.30963 12.98963-8.248889 26.168889-14.222222 39.632592-17.73037v155.591111h58.500741V181.285926c13.463704 3.508148 26.642963 9.481481 39.632593 17.73037 24.367407 15.454815 47.597037 39.537778 67.223703 69.30963 13.653333 20.66963 25.41037 43.614815 35.271111 68.456296h61.62963c-16.971852-48.82963-40.485926-91.591111-68.93037-125.819259 39.063704 16.971852 74.145185 39.442963 105.054814 67.602963 19.721481 17.73037 36.882963 37.357037 51.768889 58.216296h67.413334C1224.438519 210.394074 1078.328889 124.207407 909.842963 124.207407S595.152593 210.394074 521.481481 336.782222h67.318519c14.885926-20.859259 32.142222-40.391111 51.863704-58.121481z" fill="#5FFFBA" /><path d="M990.340741 568.225185h-0.663704L857.694815 422.020741h-35.460741v183.751111h30.53037V459.472593h0.568889l132.077037 146.299259h35.460741V422.020741h-30.53037zM696.32 422.020741H592.118519v183.751111h106.002962c62.957037 0 87.988148-43.235556 87.988149-94.435556 0.094815-53.285926-28.16-89.315556-89.78963-89.315555z m0.379259 160.047407l-73.955555-0.094815V445.62963h68.266666c52.906667 0 64.758519 33.943704 64.758519 66.085926-0.094815 32.711111-9.007407 70.352593-59.06963 70.352592z" fill="#FFA28D" /><path d="M1179.022222 746.477037c-30.90963 28.065185-65.991111 50.631111-105.054815 67.602963 28.539259-34.133333 51.958519-76.98963 68.930371-125.819259h-61.724445c-9.765926 24.936296-21.617778 47.786667-35.271111 68.551111-19.626667 29.771852-43.045926 53.76-67.318518 69.404444-12.98963 8.154074-26.263704 14.222222-39.537778 17.635556V688.165926h-58.405926v155.591111c-13.368889-3.508148-26.642963-9.481481-39.632593-17.635556-24.367407-15.54963-47.502222-39.537778-67.318518-69.404444-13.558519-20.764444-25.315556-43.614815-35.271111-68.551111h-61.724445c16.971852 48.82963 40.485926 91.591111 68.930371 125.819259-38.874074-16.971852-74.145185-39.442963-104.96-67.602963-19.721481-17.73037-36.977778-37.357037-51.863704-58.216296h-67.318519c73.765926 126.482963 219.875556 212.66963 388.361482 212.66963 168.485926 0 314.69037-86.186667 388.361481-212.66963h-67.413333c-14.885926 20.954074-32.047407 40.580741-51.768889 58.311111z" fill="#5FFFBA" /></svg>