<?xml version="1.0" encoding="utf-8"?><!-- Uploaded to: SVG Repo, www.svgrepo.com, Generator: SVG Repo Mixer Tools -->
<svg width="800px" height="800px" viewBox="0 -1 322 322" fill="none" xmlns="http://www.w3.org/2000/svg">
<path fill-rule="evenodd" clip-rule="evenodd" d="M54.0013 84.9825C30.9108 93.7984 11.7671 114.892 13.8431 140.375C15.4455 160.043 24.6157 170.561 42.0731 175.866V144.364C42.0731 144.188 42.1151 144.022 42.2049 143.87C52.1741 127.021 81.6336 113.255 116.526 105.005C112.983 96.2878 107.229 90.2576 98.1356 84.9825C82.8036 76.0887 64.3391 81.0356 54.0013 84.9825ZM255.554 212.655C263.473 207.288 269.991 201.113 274.673 194.114C277.789 196.907 280.677 198.329 284.215 198.677C285.449 198.798 286.762 198.788 288.192 198.661C298.176 197.77 303.685 188.748 304.891 178.405C305.254 175.292 305.104 172.025 304.483 168.898C302.683 159.837 296.923 151.949 288.192 152.363C282.821 152.618 279.329 154.362 275.783 158.563L276.655 130.647C276.659 130.519 276.638 130.391 276.593 130.271C273.056 120.811 265.039 113.548 253.995 108.229C262.773 100.905 273.148 97.2226 285.806 99.0373C307.69 102.175 320 130.867 320 151.536C320 172.205 311.253 191.472 302.903 199.074C290.601 210.274 275.07 217.263 262.745 215.196C260.302 214.786 257.893 213.913 255.554 212.655Z" fill="#B2AB73"/>
<path d="M274.673 194.114C239.384 246.879 99.707 252.781 42.5471 218.787C42.246 218.608 42.0731 218.289 42.0731 217.938V208.582M274.673 194.114C274.808 189.786 274.925 186.051 275.034 182.539M274.673 194.114C277.789 196.907 280.677 198.329 284.215 198.677M56.3869 168.484C58.7083 169.63 60.9566 170.701 63.1462 171.701M265.13 149.883C263.32 152.34 261.762 154.089 259.961 155.53M63.1462 171.701C87.5729 182.866 104.696 185.285 134.464 184.231C135.031 184.211 135.511 184.664 135.511 185.231V220.105C135.511 220.607 135.877 221.031 136.376 221.093C177.999 226.243 234.091 213.534 252.927 194.396C253.108 194.212 253.202 193.969 253.202 193.711V160.044C253.202 159.647 253.438 159.288 253.8 159.125C256.346 157.976 258.261 156.89 259.961 155.53M63.1462 171.701C69.7077 156.84 79.9003 148.704 90.1834 152.641M95.3523 155.67C93.638 154.303 91.9094 153.302 90.1834 152.641M90.1834 152.641C103.159 138.735 119.246 134.586 131.137 143.103M137.499 149.469C135.569 146.862 133.431 144.747 131.137 143.103M131.137 143.103C147.767 125.264 169.37 122.629 176.39 136.241M178.452 143.103C178.103 140.48 177.396 138.193 176.39 136.241M176.39 136.241C193.339 129.984 211.622 133.706 216.518 146.162M217.417 157.323C218.142 153.053 217.762 149.326 216.518 146.162M216.518 146.162C236.089 136.543 255.588 139.135 259.961 155.53M151.415 188.74C159.046 183.391 168.108 182.605 175.049 185.433M186.007 203.208C186.596 194.419 181.837 188.198 175.049 185.433M175.049 185.433C187.069 169.523 208.67 171.701 208.67 185.433M49.6276 204.861V211.476M56.3869 198.247V203.208M60.7606 213.956V218.503M113.245 193.7H119.209M125.968 193.7V199.488M253.202 119.706V124.667M262.347 127.147V133.347M42.0731 193.7V144.364C42.0731 144.188 42.115 144.022 42.2048 143.87C70.4559 96.1223 255.227 73.1334 276.593 130.271C276.638 130.391 276.659 130.519 276.655 130.647C276.595 132.561 276.104 148.269 275.783 158.563M42.0731 193.7L22.4037 199.314C22.0321 199.42 21.6347 199.306 21.3677 199.026C19.9903 197.584 15.5425 193.285 11.855 193.7C6.9417 194.254 2.22267 198.153 3.10764 203.208C3.71519 206.678 8.83808 207.91 12.1698 208.346C13.1102 208.469 13.5569 209.824 12.8816 210.49C10.8955 212.449 8.30598 215.611 8.67413 218.503C9.25113 223.035 12.6355 226.066 17.0239 226.357C22.1703 226.698 25.3326 216.868 26.0247 214.475C26.1186 214.15 26.362 213.89 26.6823 213.782L42.0731 208.582M42.0731 193.7V208.582M275.783 158.563C279.329 154.362 282.821 152.618 288.191 152.363C296.923 151.949 302.683 159.837 304.483 168.898M275.783 158.563C275.485 168.119 275.276 174.785 275.034 182.539M275.034 182.539C275.034 182.539 281.129 180.641 284.215 182.539C289.433 185.748 284.215 198.677 284.215 198.677M284.215 198.677C285.449 198.798 286.762 198.788 288.191 198.661C298.176 197.77 303.685 188.748 304.891 178.405C305.254 175.292 305.104 172.025 304.483 168.898M297.336 156.497C297.336 156.497 285.408 163.517 285.408 172.205C285.408 176.339 287.409 179.779 291.372 178.405C294.951 177.165 300.881 167.156 304.483 168.898" stroke="#000000" stroke-width="5" stroke-linecap="round"/>
</svg>