<?xml version="1.0" ?><!DOCTYPE svg  PUBLIC '-//W3C//DTD SVG 1.1//EN'  'http://www.w3.org/Graphics/SVG/1.1/DTD/svg11.dtd'><!-- Uploaded to: SVG Repo, www.svgrepo.com, Generator: SVG Repo Mixer Tools -->
<svg fill="#000000" width="800px" height="800px" viewBox="0 0 32 32" style="fill-rule:evenodd;clip-rule:evenodd;stroke-linejoin:round;stroke-miterlimit:2;" version="1.1" xml:space="preserve" xmlns="http://www.w3.org/2000/svg" xmlns:serif="http://www.serif.com/" xmlns:xlink="http://www.w3.org/1999/xlink"><path d="M15.009,13.871c-1.047,-0.556 -2.242,-0.871 -3.509,-0.871c-4.139,0 -7.5,3.361 -7.5,7.5c-0,4.139 3.361,7.5 7.5,7.5c2.025,-0 3.863,-0.804 5.213,-2.11c1.187,1.297 2.894,2.11 4.79,2.11c0.001,0 0.002,0 0.003,0c3.587,-0 6.494,-2.907 6.494,-6.494c-0,-3.362 -0,-7.65 -0,-11.012c-0,-3.587 -2.907,-6.494 -6.494,-6.494c-0.001,-0 -0.002,-0 -0.003,-0c-3.586,0 -6.494,2.907 -6.494,6.494l0,3.377Zm3.125,3.129c0.553,1.045 0.866,2.236 0.866,3.5c-0,1.381 -0.374,2.676 -1.027,3.788c0.824,1.043 2.099,1.712 3.53,1.712c0.001,0 0.002,0 0.003,0c2.482,-0 4.494,-2.012 4.494,-4.494l-0,-4.506l-7.866,-0Zm-2.099,0.389c0.609,0.885 0.965,1.957 0.965,3.111c-0,3.036 -2.464,5.5 -5.5,5.5c-1.154,-0 -2.226,-0.356 -3.111,-0.965l7.646,-7.646Zm-1.413,-1.416l-7.649,7.649c-0.614,-0.887 -0.973,-1.963 -0.973,-3.122c0,-3.036 2.464,-5.5 5.5,-5.5c1.159,-0 2.235,0.359 3.122,0.973Zm11.378,-0.973l-0,-4.506c-0,-2.482 -2.012,-4.494 -4.494,-4.494c-0.001,-0 -0.002,-0 -0.003,-0c-2.482,0 -4.494,2.012 -4.494,4.494l0,4.506l8.991,-0Z"/></svg>