<?xml version="1.0" encoding="utf-8"?><!-- Uploaded to: SVG Repo, www.svgrepo.com, Generator: SVG Repo Mixer Tools -->
<svg width="800px" height="800px" viewBox="0 0 320 320" fill="none" xmlns="http://www.w3.org/2000/svg">
<path fill-rule="evenodd" clip-rule="evenodd" d="M75.8531 137.739C54.6966 143.59 35.3482 152.477 20.6322 175.1C6.5143 196.803 6.39751 222.438 20.6322 244.064C33.4353 263.516 54.9652 272.257 84.2048 275.01C122.636 278.628 154.605 272.489 187.99 253.972C145.57 254.348 88.5857 253.309 75.8461 250.528C68.3313 248.888 61.0881 245.219 56.3959 237.21C50.9572 227.927 53.7431 210.131 53.7431 210.131C61.0542 181.812 67.0169 161.318 75.8531 137.739ZM272.291 190.486C297.958 165.833 313.991 137.568 307.591 91.1046C304.059 65.4639 287.591 51.8665 259.912 44.6861C230.561 37.0723 211.516 56.4806 191.14 78.0996C219.375 78.117 242.853 78.3435 242.94 78.7288C243.157 79.695 242.498 91.1593 242.498 91.1593V98.2621C242.498 98.2621 261.72 152.706 272.291 190.486Z" fill="#FBAD36"/>
<path d="M242.769 98.0057C242.769 98.0057 285.515 219.077 278.575 225.412C272.741 230.739 274.598 228.963 274.598 228.963M242.769 98.0057V90.9029M242.769 98.0057L237.825 212.539M236.139 251.604C229.509 254.711 96.4521 254.711 76.1179 250.272C68.6031 248.631 61.3599 244.963 56.6678 236.954C51.229 227.671 54.0149 209.875 54.0149 209.875M236.139 251.604L237.442 221.417M236.139 251.604C243.212 251.118 271.503 232.958 274.598 228.963M54.0149 209.875C65.3075 166.133 73.3832 141.061 93.7992 94.4543M54.0149 209.875C59.4581 213.782 65.644 214.875 89.8212 215.605M93.7992 94.4543C93.7992 94.4543 94.5174 81.1828 95.1254 79.3608C95.7334 77.5388 242.994 77.5062 243.212 78.4724C243.429 79.4386 242.769 90.9029 242.769 90.9029M93.7992 94.4543C127.203 94.5017 145.673 94.0362 178.23 92.4414M242.769 90.9029C233.939 91.0016 229.093 91.1125 220.667 91.4298M237.442 221.417C253.021 227.577 261.757 228.179 274.598 228.963M237.442 221.417L237.825 212.539M237.825 212.539C227.852 213.78 214.675 214.413 185.851 215.605M89.8212 215.605C89.8212 215.605 100.847 202.183 110.155 190.745C115.902 183.683 126.069 168.145 126.511 163.262C126.511 163.262 127.542 155.929 126.511 151.72M89.8212 215.605C129.712 217.193 154.441 217.398 185.851 215.605M126.511 151.72C123.153 150.604 120.764 149.502 120.764 145.95C120.764 142.398 136.236 132.188 140.215 132.188C144.193 132.188 144.635 135.739 144.635 135.739M126.511 151.72C129.606 153.052 132.902 154.828 136.236 154.828C139.331 154.828 140.517 154.677 143.309 152.608C146.516 150.231 147.265 148.154 146.845 144.174C146.479 140.705 144.635 135.739 144.635 135.739M144.635 135.739C144.635 135.739 160.991 132.631 170.274 133.519C174.09 133.884 176.152 134.851 178.673 138.402C181.194 141.954 177.467 151.514 182.651 152.164C189.724 153.051 200.628 152.164 200.628 152.164M185.851 215.605C184.149 215.417 179.999 188.122 183.093 183.683C184.527 181.626 191.492 182.351 196.355 181.907C202.506 181.346 205.559 181.014 208.732 175.692C210.89 172.073 211.238 168.589 210.795 164.594M200.628 152.164C200.628 152.164 199.395 157.853 202.101 161.487C204.559 164.787 206.817 165.038 210.795 164.594M200.628 152.164C207.31 151.998 214.774 150.388 210.795 164.594M162.759 149.057C162.909 152.178 162.92 153.927 162.759 157.048M64.6241 224.081V230.296M73.023 232.515V238.73M233.929 98.0057C233.789 100.876 233.755 102.284 233.929 103.777M224.646 105.108C224.465 106.397 224.444 107.559 224.646 110.88" stroke="#000000" stroke-width="5" stroke-linecap="round"/>
</svg>