<?xml version="1.0" encoding="utf-8"?>
<!-- Uploaded to: SVG Repo, www.svgrepo.com, Generator: SVG Repo Mixer Tools -->
<svg width="800px" height="800px" viewBox="0 0 1024 1024" class="icon"  version="1.1" xmlns="http://www.w3.org/2000/svg"><path d="M587.776 481.28c-12.8-30.72-43.52-51.2-76.8-51.2-11.264 0-19.968 9.216-19.968 20.48s8.704 20.48 19.968 20.48c16.896 0 32.768 10.24 38.912 26.112v0.512c1.536 4.608 3.072 10.24 3.072 15.872 0 16.384-10.752 32.256-26.624 38.4l-0.512 0.512c-9.728 3.584-21.504 3.584-31.232 0v-0.512c-15.872-6.656-26.112-22.016-26.112-38.4 0-11.776-8.704-20.48-20.48-20.48-11.264 0-19.968 9.216-19.968 20.48 0 21.504 8.704 43.008 24.064 58.368 7.68 7.68 16.896 13.824 26.624 17.92 19.968 8.192 42.496 8.192 62.464 0.512l1.024-0.512c10.24-4.096 19.456-10.24 27.136-17.92 15.36-15.36 24.064-36.864 24.064-58.368 0-10.752-2.048-20.992-5.632-30.72V481.28z" fill="#FFD561" /><path d="M949.248 498.176C867.328 332.8 696.32 226.304 511.488 226.304S155.648 332.288 73.728 498.176c-4.096 9.216-4.608 19.968 0 30.208 81.92 165.376 252.928 271.872 437.76 271.872s356.352-106.496 437.76-271.872c4.608-9.216 4.608-20.48 0-30.208zM510.976 732.16c-153.088 0-295.936-84.48-369.152-218.624C215.04 378.88 357.888 294.4 510.976 294.4S807.424 378.88 880.64 513.536c-73.216 134.144-216.064 218.624-369.664 218.624z" fill="#5FFFBA" /><path d="M510.976 312.832c-110.592 0-200.704 90.112-200.704 200.704 0 110.08 90.112 200.192 200.704 200.192 110.08 0 200.704-90.624 200.704-200.192 0-111.104-90.112-200.704-200.704-200.704z m0 359.936c-88.064 0-159.744-71.68-159.744-159.744s71.68-160.256 159.744-160.256 160.256 71.68 160.256 160.256c0 88.064-71.68 159.744-160.256 159.744z" fill="#FFA28D" /></svg>