<?xml version="1.0" encoding="utf-8"?>
<!-- Uploaded to: SVG Repo, www.svgrepo.com, Generator: SVG Repo Mixer Tools -->
<svg width="800px" height="800px" viewBox="0 0 1024 1024" class="icon"  version="1.1" xmlns="http://www.w3.org/2000/svg"><path d="M494.08 330.752c-11.264-6.144-22.016-12.8-33.28-18.944-22.016-12.288-27.648-10.24-40.448 11.264-47.616 80.384-94.72 160.768-142.336 241.152-26.624 44.544-52.736 89.6-78.848 134.144-9.728 16.896-7.68 24.064 8.704 33.792 11.776 6.656 23.04 13.312 34.816 19.968 6.144 3.072 12.288 5.632 21.504 9.728 6.144-6.656 13.312-12.288 17.92-19.456 26.112-43.52 51.712-87.04 77.312-131.072 48.128-81.408 95.744-162.816 143.872-244.224 11.776-18.432 9.728-25.6-9.216-36.352z" fill="#FFD561" /><path d="M505.344 198.144c0.512 1.536 4.608 3.584 6.656 3.584 14.336 0.512 28.16 0 45.568 0-20.992-31.744-35.84-63.488-65.536-88.064-3.072 6.144-5.12 8.704-4.608 10.24 5.632 25.088 11.776 49.664 17.92 74.24z" fill="#FFA28D" /><path d="M531.968 435.712c-13.312 1.536-20.48 5.12-26.624 16.896-18.944 36.352-38.912 71.68-58.88 107.52-6.144 10.752-11.776 22.016-18.944 34.816h207.872c-19.456-44.032-39.936-85.504-56.32-128-8.704-25.088-21.504-34.304-47.104-31.232zM216.064 594.432c4.608 0 11.776-3.072 13.824-6.656 27.648-49.152 54.784-98.816 83.456-151.552H107.008c-13.824 0-19.456 8.192-19.456 21.504V573.44c0 14.336 7.168 21.504 21.504 21.504 35.84 0 71.168 0 107.008-0.512z" fill="#5FFFBA" /><path d="M235.008 778.24c-15.872-9.728-32.256-18.432-48.64-27.136-9.216-5.12-16.384-2.048-17.92 8.704-3.584 24.064-6.144 48.64-9.728 74.24 1.024 8.704 5.12 12.288 14.336 6.144 20.992-13.312 41.984-27.136 62.464-41.472 10.24-6.656 9.216-14.336-0.512-20.48z" fill="#FFA28D" /><path d="M936.448 456.192c0-12.288-7.168-19.456-19.968-19.456h-180.736c4.096 7.68 6.144 12.288 8.704 16.896 22.528 45.568 44.544 90.624 67.072 135.68 1.536 3.072 6.144 5.12 9.216 5.12 31.744 0.512 62.976 1.024 94.72 0 11.776-0.512 20.992-7.68 20.992-20.992V456.192z" fill="#5FFFBA" /><path d="M772.608 577.024c-62.976-110.592-127.488-220.16-187.904-331.776-17.408-32.256-38.4-42.496-74.24-35.328 2.56 7.168 4.608 12.8 7.168 18.944 39.424 88.064 78.848 176.64 119.296 264.704 19.456 42.496 41.472 83.456 64 124.416 12.8 23.552 33.28 26.112 59.904 10.24 21.504-13.312 25.088-27.136 11.776-51.2z" fill="#FFD561" /><path d="M845.824 745.472c-16.896 0-36.864 11.264-41.472 24.064-6.144 17.92 2.048 32.256 14.848 43.52 8.704 7.68 20.48 13.312 30.72 19.456 11.776 6.144 23.552 11.776 41.472 19.968-4.096-28.672-6.656-54.272-12.288-78.848-3.584-15.872-14.336-28.16-33.28-28.16zM832.512 722.432c4.608-5.632-1.024-19.968-3.072-30.208-1.024-4.096-4.096-8.192-6.144-12.288-22.016-46.08-28.672-37.376-66.56-17.92-12.8 6.656-15.36 16.896-7.68 29.184 9.216 14.336 17.92 28.672 28.16 42.496 4.096 5.632 11.264 9.216 18.944 15.36 12.8-9.216 27.648-15.36 36.352-26.624z" fill="#FFA28D" /></svg>