<?xml version="1.0" encoding="utf-8"?>
<!-- Uploaded to: SVG Repo, www.svgrepo.com, Generator: SVG Repo Mixer Tools -->
<svg width="800px" height="800px" viewBox="0 0 1024 1024" class="icon"  version="1.1" xmlns="http://www.w3.org/2000/svg"><path d="M792.5 558.4c-46.8-27-44-118.7-14-170.7 26.9-46.6 86.5-62.6 133.1-35.7s62.6 86.5 35.7 133.1c-30.1 52.1-108 100.4-154.8 73.3zM623.4 390c-60.7-16.3-86.1-124.4-67.4-194 16.5-61.5 79.7-98.1 141.3-81.6 61.5 16.5 98.1 79.7 81.6 141.3-18.7 69.6-94.8 150.6-155.5 134.3zM233.5 558.7c-46.9 27.1-125.1-21.3-155.2-73.4-27-46.7-11-106.4 35.8-133.4 46.7-27 106.5-11 133.4 35.7 30 52.2 32.9 144-14 171.1zM374.6 390c-60.7 16.3-136.8-64.7-155.4-134.3-16.5-61.5 20-124.8 81.6-141.3S425.6 134.4 442.1 196c18.6 69.6-6.8 177.7-67.5 194zM513 436.3c111.7 0 279.9 170.1 279.9 307.6 0 91.3-28.3 143.3-79.1 161.4-17.5 6.2-32 7.4-54.3 6.7-4.4-0.1-5.2-0.2-6.5-0.2-11.7 0-23.4-3.8-39.7-11.2-5.4-2.5-11.1-5.3-19.2-9.4 5.8 2.9-15.2-7.7-20.1-10.1-16.3-8.1-28.8-13.7-40.5-17.8-9-3.2-17.2-5.3-24.5-6.3h8c-7.3 1.1-15.4 3.2-24.5 6.4-11.8 4.2-24.2 9.7-40.5 17.9-4.9 2.4-25.8 13.1-20.1 10.2-8.1 4.1-13.8 6.9-19.2 9.4-16.2 7.5-28 11.3-39.7 11.3-1.3 0-2.1 0-6.5 0.2-22.3 0.7-36.8-0.5-54.3-6.7-50.8-18.1-79.1-70.1-79.1-161.4 0-137.5 168.2-308 279.9-308z" fill="#5E676F" /><path d="M823.5 509.9c11.9 6.9 61.8-24 78.4-52.8 11.5-19.8 4.7-45.2-15.2-56.7-19.8-11.5-45.2-4.7-56.7 15.2-16.6 28.9-18.4 87.5-6.5 94.3zM637.9 335.9c21.7 5.8 75.1-51 86.9-94.7 8.5-31.7-10.3-64.2-42-72.7s-64.2 10.3-72.7 42c-11.8 43.7 6 119.6 27.8 125.4zM202.9 510.2c12-6.9 10.2-65.7-6.5-94.6-11.5-19.9-37-26.7-56.9-15.2s-26.7 37-15.2 56.9c16.6 28.9 66.6 59.8 78.6 52.9zM360.1 335.9c21.7-5.8 39.6-81.8 27.9-125.5-8.5-31.7-41-50.5-72.7-42s-50.5 41-42 72.7c11.7 43.8 65.1 100.6 86.8 94.8zM513 492.3c-80.6 0-223.9 145.2-223.9 251.9 0 69.7 16.2 99.5 41.8 108.7 9.2 3.3 18.1 4 33.9 3.5 5.2-0.2 6.1-0.2 8.2-0.2 3.9 0 3.7 0.1 54-25 18.2-9.1 32.5-15.5 46.9-20.6 12.3-4.3 23.9-7.4 35.1-9l4-0.6 4 0.6c11.2 1.6 22.7 4.6 35 8.9 14.4 5 28.7 11.4 46.9 20.5 50.3 25 50.1 24.9 54 24.9 2.2 0 3 0 8.2 0.2 15.8 0.5 24.7-0.2 33.9-3.5 25.6-9.1 41.8-39 41.8-108.7 0.1-106.7-143.1-251.6-223.8-251.6z" fill="#FFFFFF" /></svg>