<?xml version="1.0" encoding="iso-8859-1"?>
<!-- Uploaded to: SVG Repo, www.svgrepo.com, Generator: SVG Repo Mixer Tools -->
<!DOCTYPE svg PUBLIC "-//W3C//DTD SVG 1.1//EN" "http://www.w3.org/Graphics/SVG/1.1/DTD/svg11.dtd">
<svg fill="#000000" version="1.1" id="Capa_1" xmlns="http://www.w3.org/2000/svg" xmlns:xlink="http://www.w3.org/1999/xlink" 
	 width="800px" height="800px" viewBox="0 0 480.455 480.455"
	 xml:space="preserve">
<g>
	<g>
		<path d="M235.862,13.312c-5.228,0.048-10.166,2.481-13.548,6.667L0,295.432l20.279,16.366L236.156,44.321l224.327,267.65
			l19.972-16.737L249.539,19.728C246.076,15.603,241.054,13.297,235.862,13.312z"/>
		<path d="M264.58,376.888c-7.602,1.762-14.863,2.204-21.401,1.519l-88.75,88.737h187.829c13.092,0,26.355-10.268,29.63-22.947
			l43.052-166.776L239.97,68.659c-1.983-2.361-5.149-2.331-7.094,0.063L64.45,277.415L88.725,415.8l95.923-95.923
			c-0.681-6.54-0.239-13.812,1.523-21.408c6.154-26.533,25.976-46.992,44.257-45.718c18.289,1.3,28.115,23.847,21.97,50.374
			c-0.884,3.793-2.057,7.475-3.453,10.974c3.509-1.401,7.175-2.569,10.979-3.448c26.522-6.145,49.084,3.682,50.363,21.973
			C311.577,350.903,291.107,370.733,264.58,376.888z"/>
	</g>
</g>
</svg>