<?xml version="1.0" encoding="utf-8"?><!-- Uploaded to: SVG Repo, www.svgrepo.com, Generator: SVG Repo Mixer Tools -->
<svg width="800px" height="800px" viewBox="0 0 320 320" fill="none" xmlns="http://www.w3.org/2000/svg">
<path fill-rule="evenodd" clip-rule="evenodd" d="M250.392 22.3116C219.749 19.9608 189.945 30.7453 181.459 60.3116C176.063 79.1108 180.81 95.5388 192.035 109.522C192.099 109.305 192.235 109.11 192.424 108.978C219.256 90.1826 235.324 84.8736 264.743 83.8333C265.127 83.8198 265.494 84.0333 265.671 84.3738C274.503 101.353 277.629 113.185 277.99 130.612C278.782 130.195 279.573 129.761 280.363 129.312C302.348 116.796 315.674 99.0607 313.831 73.8116C311.506 41.9677 282.197 24.7515 250.392 22.3116ZM241.626 208.553C237.934 205.494 233.269 202.807 227.414 200.312C217.558 196.11 206.536 194.411 196.736 194.986C197.205 204.161 197.434 214.093 197.443 225.149C197.443 225.255 197.426 225.366 197.392 225.467C192.421 240.533 187.968 245.488 177.962 249.812C131.166 270.243 74.9942 265.655 50.3351 237.596C50.1739 237.413 50.0881 237.172 50.0906 236.928C50.3443 212.884 51.2815 193.544 53.3538 175.56C38.9963 173.954 27.0125 178.235 16.6191 189.812C-0.880819 209.304 7.62792 237.312 25.111 256.312C41.8614 274.515 69.0692 285.057 101.037 292.812C131.582 300.221 168.971 298.224 181.459 295.812C209.931 290.312 232.909 278.812 243.399 263.812C248.643 256.313 251.746 248.969 253.071 242.339C249.719 241.494 247.091 238.392 245.397 234.812C243.772 231.378 242.538 220.739 241.626 208.553Z" fill="#231E54"/>
<path d="M70.5668 96.8115V84.8115C70.5668 84.2592 71.0145 83.8115 71.5668 83.8115H176.962C177.515 83.8115 177.962 84.2592 177.962 84.8115V96.8115M70.5668 96.8115C55.3671 147.8 50.7077 178.453 50.0907 236.928C50.0881 237.172 50.174 237.413 50.3351 237.596C74.9942 265.655 131.166 270.243 177.962 249.812M70.5668 96.8115H84.5532M177.962 249.812C187.968 245.488 192.421 240.533 197.392 225.467C197.426 225.366 197.443 225.255 197.443 225.149C197.395 169.545 191.805 142.382 177.962 96.8115M177.962 249.812C170.865 190.874 170.959 157.365 177.962 96.8115M177.962 96.8115H106.532M188.452 206.312L189.451 211.812M61.076 223.312V230.812M68.5687 234.812V239.812M164.475 109.312V115.312M155.484 121.312V127.812M164.475 130.812V136.812M108.03 133.312V136.812M120.019 133.312V136.812M96.042 187.812C96.3639 180.855 99.618 176.752 108.871 170.004C109.542 169.514 110.511 170.015 110.545 170.845C110.667 173.827 111.276 179.302 114.025 181.812C117.311 184.812 122.185 181.375 125.014 184.812C127.18 187.444 127.012 193.312 127.012 193.312M96.042 187.812C94.1412 193.643 99.0391 195.312 127.012 193.312M96.042 187.812C96.042 187.812 85.8062 194.858 87.5503 201.812C87.8239 202.902 88.1938 203.904 88.6577 204.812M127.012 193.312C127.012 193.312 131.207 196.124 133.006 200.312C135.092 205.168 131.008 211.812 131.008 211.812M131.008 211.812C131.008 211.812 125.203 209.174 118.52 208.312C109.602 207.16 105.033 212.312 97.041 210.812C93.1274 210.077 90.3018 208.029 88.6577 204.812M131.008 211.812C131.008 211.812 136.638 215.032 137.502 219.312C138.365 223.591 140.365 230.812 136.003 230.812C130.009 230.812 127.09 227.544 118.52 226.312C105.968 224.506 88.3503 232.433 83.5541 223.312C78.559 213.812 88.6577 204.812 88.6577 204.812M239.403 160.673C228.762 163.641 218.591 164.383 206.056 163.839C205.677 163.823 205.336 163.587 205.184 163.24C196.74 144.023 193.856 132.121 191.997 109.888C191.967 109.535 192.133 109.182 192.424 108.978C219.256 90.1825 235.324 84.8735 264.743 83.8332C265.127 83.8197 265.494 84.0332 265.671 84.3737C276.333 104.87 278.679 117.865 277.884 142.256C277.873 142.598 277.684 142.918 277.389 143.091C262.08 152.076 250.486 157.582 239.403 160.673ZM239.403 160.673C239.403 160.673 240.901 225.312 245.397 234.812C247.69 239.657 251.693 243.627 256.886 242.312C261.502 241.142 263.405 237.055 263.879 232.312C264.878 222.312 239.403 160.673 239.403 160.673ZM253.389 100.312C255.618 112.726 257.576 119.74 261.881 132.312M235.906 106.812C240.3 120.568 243.151 127.824 249.892 138.812M219.422 111.812C223.524 126.29 225.822 133.578 229.912 144.312M205.436 117.312C207.648 131.347 209.828 138.937 215.925 151.812M89.0488 136.812C89.0488 130.994 97.2908 125.019 98.8025 123.973C98.9572 123.865 99.0804 123.721 99.1582 123.549L103.312 114.401C103.632 113.697 104.595 113.607 105.04 114.238L109.73 120.888C109.917 121.154 110.222 121.312 110.547 121.312H121.149C121.387 121.312 121.617 121.227 121.797 121.073L129.86 114.214C130.509 113.661 131.508 114.123 131.508 114.975V124.838C131.508 125.138 131.639 125.419 131.865 125.616C133.355 126.918 139 132.158 139 136.812C139 142.173 135.84 145.158 131.508 148.312C126.013 152.312 103.035 151.812 99.0391 149.812C93.3158 146.947 89.0488 143.217 89.0488 136.812Z" stroke="#000000" stroke-width="5" stroke-linecap="round"/>
</svg>