<?xml version="1.0" encoding="utf-8"?><!-- Uploaded to: SVG Repo, www.svgrepo.com, Generator: SVG Repo Mixer Tools -->
<svg width="800px" height="800px" viewBox="0 0 320 320" fill="none" xmlns="http://www.w3.org/2000/svg">
<path fill-rule="evenodd" clip-rule="evenodd" d="M173.519 262.503C174.162 234.213 174.985 183.566 173.613 150.765C186.284 148.116 194.815 146.1 206.247 136.703C212.467 131.59 215.143 125.269 217.762 119.085C220.634 112.304 223.435 105.687 230.762 101.008C231.301 100.664 231.837 100.326 232.369 99.9951C233.787 100.382 235.28 100.581 236.809 100.568C242.953 100.512 248.455 97.0722 250.705 91.8037C256.497 90.5657 262.504 90.7981 269.286 93.076C285.217 98.4266 292.12 110.558 295.991 127.008C299.931 143.754 292.124 176.197 276.291 201.924C275.702 202.88 275.117 203.819 274.532 204.743C274.227 201.283 273.928 198.997 273.664 198.398C269.441 188.832 257.466 177.653 255.278 179.009C238.204 189.585 211.938 188.703 201.869 179.89C200.862 179.009 189.637 189.481 187.422 198.398C186.81 200.863 184.697 238.79 185.128 262.798C181.442 263.059 177.619 262.982 173.519 262.503ZM248.273 160.5V173.28C237.767 179.89 219.818 180.331 207.998 173.28V161.381C216.315 155.212 240.393 153.449 248.273 160.5Z" fill="#231E54"/>
<path fill-rule="evenodd" clip-rule="evenodd" d="M111.414 63.8845C102.895 64.0214 94.3598 65.7803 90.2361 68.8389V85.5847C95.1239 88.5796 103.017 90.1195 110.941 90.3069C110.63 91.6439 110.293 93.0069 109.936 94.398C109.69 95.3524 109.415 96.2994 109.112 97.2376C98.6463 96.5266 89.0805 93.4634 84.1072 89.1102C65.4867 96.7188 45.162 113.788 43.394 120.398C42.739 122.847 42.1243 125.475 41.5489 128.266C30.7479 123.129 25.0827 113.286 23.2555 97.9233C20.2551 72.6962 44.4461 51.8319 55.6504 46.3639C70.0979 39.3131 89.4069 37.0904 102.931 50.7708C107.176 55.065 109.873 59.3836 111.414 63.8845Z" fill="#231E54"/>
<path d="M90.2361 68.8389C98.5539 62.6694 124.82 61.7881 132.7 68.8389M90.2361 68.8389V85.5847C100.305 91.7542 123.127 91.7492 132.7 86.4661V68.8389M90.2361 68.8389C102.056 74.5678 123.251 75.2584 132.7 68.8389M38.2926 149.042C39.595 138.018 41.2861 128.279 43.394 120.398C45.1621 113.788 65.4868 96.7188 84.1072 89.1102C94.1761 97.9237 123.069 101.449 140.143 90.8729C155.94 100.869 162.215 107.424 169.911 120.398C177.608 133.373 172.976 283.449 172.976 283.449C148.46 301.076 65.2825 302.398 37.2652 282.127C36.2933 269.189 35.6033 255.644 35.2216 242.026M38.2926 149.042C54.6974 155.049 72.5661 156.294 114.313 156.093V249.958C95.0513 259.212 49.5225 253.043 35.2216 242.026M38.2926 149.042C35.1893 175.311 34.2925 208.882 35.2216 242.026M140.143 108.941C143.29 110.48 144.677 112.14 147.147 115.11M140.143 120.398C142.588 123.91 144.183 125.028 147.147 126.568M159.842 255.687C160.58 257.82 160.724 259.368 159.842 263.619M149.773 275.517C153.102 275.804 154.695 274.721 157.653 273.314M46.8959 265.822C46.3942 267.973 46.4317 269.535 46.8959 273.314M207.998 161.381C216.315 155.212 240.393 153.449 248.273 160.5M207.998 161.381V173.28C219.818 180.331 237.766 179.89 248.273 173.28V160.5M207.998 161.381C219.818 167.11 238.824 166.92 248.273 160.5M201.869 191.788C200.234 193.527 199.402 194.55 198.367 196.636M204.495 202.365L201.869 205.009M263.595 267.585C264.797 271.538 265.068 273.091 265.346 275.517M251.337 278.161C254.197 278.61 255.581 278.784 257.904 279.042M197.491 56.9404C199.895 60.5545 200.003 62.5805 197.491 66.1946M201.869 179.89C211.938 188.703 238.204 189.585 255.277 179.009C257.466 177.653 269.441 188.832 273.664 198.398C275.415 202.365 278.671 280.364 275.415 283.449C267.973 290.5 207.122 298.873 187.422 282.127C182.598 278.027 186.547 201.924 187.422 198.398C189.637 189.481 200.862 179.009 201.869 179.89ZM190.924 40.6355C179.559 40.5152 169.911 49.4654 169.911 60.9067C169.911 72.3481 179.559 81.2982 190.924 81.178C202.167 81.059 211.5 72.2246 211.5 60.9067C211.5 49.5889 202.167 40.7545 190.924 40.6355ZM233.826 23.0081C227.181 22.7602 221.569 28.2124 221.569 34.9064C221.569 41.3572 226.547 46.5658 232.951 46.8048C239.596 47.0527 245.208 41.6005 245.209 34.9064C245.209 28.4557 240.23 23.247 233.826 23.0081ZM236.809 72.3641C228.608 72.2895 221.313 78.6555 221.569 86.9065C221.817 94.9247 228.84 100.64 236.809 100.568C244.698 100.496 251.529 94.8448 251.775 86.9065C252.029 78.7331 244.932 72.438 236.809 72.3641ZM258.78 218.561V250.432C258.78 250.921 258.419 251.34 257.936 251.419C236.267 254.955 223.867 254.773 202.659 250.132C202.201 250.032 201.869 249.624 201.869 249.155V219.822C201.869 219.213 202.414 218.747 203.017 218.831C224.358 221.795 236.723 221.563 257.581 217.579C258.199 217.461 258.78 217.932 258.78 218.561Z" stroke="#000000" stroke-width="5" stroke-linecap="round"/>
</svg>