<?xml version="1.0" encoding="utf-8"?>
<!-- Uploaded to: SVG Repo, www.svgrepo.com, Generator: SVG Repo Mixer Tools -->
<svg width="800px" height="800px" viewBox="0 -398 1820 1820" class="icon"  version="1.1" xmlns="http://www.w3.org/2000/svg"><path d="M795.496296 456.059259v284.444445l256-142.222223-256-142.222222z" fill="#FFA28D" /><path d="M1165.274074 171.614815H653.274074c-50.251852 0-85.333333 35.081481-85.333333 85.333333v512c0 50.251852 35.081481 85.333333 85.333333 85.333333h512c50.251852 0 85.333333-35.081481 85.333333-85.333333V256.948148c0-50.251852-35.081481-85.333333-85.333333-85.333333z m56.888889 113.777778v56.888888h-28.444444l-56.888889-142.222222c50.251852 0 85.333333 35.081481 85.333333 85.333334z m-142.222222-85.333334l56.888889 142.222222h-85.333334l-56.888889-142.222222h85.333334z m-142.222222 0l56.888888 142.222222h-85.333333l-56.888889-142.222222h85.333334z m-142.222223 0l56.888889 142.222222h-85.333333l-56.888889-142.222222h85.333333z m-199.111111 85.333334c0-40.675556 23.134815-71.016296 58.500741-81.256297L710.162963 342.281481H596.385185v-56.888888z m625.777778 455.111111c0 50.251852-35.081481 85.333333-85.333333 85.333333H681.718519c-50.251852 0-85.333333-35.081481-85.333334-85.333333V370.725926h625.777778v369.777778z" fill="#5FFFBA" /></svg>