<?xml version="1.0" encoding="utf-8"?>
<!-- Uploaded to: SVG Repo, www.svgrepo.com, Generator: SVG Repo Mixer Tools -->
<svg width="800px" height="800px" viewBox="0 0 1024 1024" class="icon"  version="1.1" xmlns="http://www.w3.org/2000/svg"><path d="M512 178.176c-101.888 0-184.832 82.944-184.832 184.832S410.112 547.84 512 547.84s184.832-82.944 184.832-184.832-82.944-184.832-184.832-184.832z m0 305.664c-66.56 0-120.832-54.272-120.832-120.832S445.44 242.176 512 242.176s120.832 54.272 120.832 120.832S578.56 483.84 512 483.84z" fill="#FFA28D" /><path d="M681.472 609.28l-41.984 24.064c14.848-6.656 28.672-14.848 41.984-24.064zM384.512 633.856l-41.984-24.064c13.312 8.704 27.136 16.896 41.984 24.064zM716.288 663.552l-47.616 27.648c16.384-8.192 32.256-17.408 47.616-27.648zM639.488 633.856c-38.912 18.432-81.92 28.672-127.488 28.672s-89.088-10.24-127.488-28.672l92.672 53.76-18.432 35.328c17.408 2.56 35.328 4.096 53.248 4.096s35.84-1.536 53.248-4.096l-18.432-35.328 92.672-53.76z" fill="#5FFFBA" /><path d="M716.288 663.552c30.72-20.992 57.856-46.592 80.896-75.264l-17.92-34.816-97.28 56.32c-13.312 9.216-27.136 17.408-41.984 24.064l-92.672 53.76 18.432 35.328c36.352-5.632 71.168-16.384 103.424-31.744l47.104-27.648z" fill="#5FFFBA" /><path d="M796.672 588.288c-23.04 29.184-50.176 54.272-80.896 75.264l36.864-20.992 83.968 161.28-91.136-10.752-32.256 76.288-81.92-156.672 36.864-21.504c-32.256 15.36-67.072 26.112-103.424 31.744l154.624 296.448 66.56-157.184 163.328 18.944-152.576-292.864zM384.512 633.856c-14.848-7.168-28.672-14.848-41.984-24.064l-97.28-56.32-17.92 34.816c23.04 29.184 50.176 54.272 80.896 75.264l47.104 27.136c32.256 15.36 67.072 26.624 103.936 31.744l18.432-35.328-93.184-53.248zM307.712 663.552c14.848 10.24 30.72 19.456 47.104 27.136l-47.104-27.136z" fill="#5FFFBA" /><path d="M392.192 712.192l-81.92 156.672-32.256-76.288-91.136 10.752 83.968-161.28 36.864 21.504c-30.72-20.992-57.856-46.592-80.896-75.264L74.24 880.64l163.328-18.944 66.56 157.184 154.624-296.448c-36.864-5.632-71.68-16.384-103.936-31.744l37.376 21.504zM342.528 609.792C264.192 555.52 212.992 465.408 212.992 363.52c0-164.864 134.144-299.008 299.008-299.008s299.008 134.144 299.008 299.008c0 101.888-51.2 192-129.536 246.272l97.28-56.32 17.92 34.816c49.152-61.952 78.336-139.776 78.336-224.768 0-200.704-162.816-363.52-363.008-363.52S148.992 162.816 148.992 363.008c0 84.992 29.184 162.816 78.336 224.768l17.92-34.816 97.28 56.832z" fill="#5FFFBA" /></svg>