<?xml version="1.0" ?><!DOCTYPE svg  PUBLIC '-//W3C//DTD SVG 1.1//EN'  'http://www.w3.org/Graphics/SVG/1.1/DTD/svg11.dtd'><!-- Uploaded to: SVG Repo, www.svgrepo.com, Generator: SVG Repo Mixer Tools -->
<svg fill="#000000" width="800px" height="800px" viewBox="0 0 32 32" style="fill-rule:evenodd;clip-rule:evenodd;stroke-linejoin:round;stroke-miterlimit:2;" version="1.1" xml:space="preserve" xmlns="http://www.w3.org/2000/svg" xmlns:serif="http://www.serif.com/" xmlns:xlink="http://www.w3.org/1999/xlink"><path d="M11,30.079c0,0 -0.022,0 -0.03,0c-2.746,-0.016 -4.97,-2.25 -4.97,-5c-0,-1.629 0.78,-3.077 1.988,-3.99l-0,-16.07c-0,-1.66 1.347,-3.007 3.006,-3.007c1.659,0 3.006,1.347 3.006,3.007c-0,-0 -0,16.061 -0,16.061c1.214,0.912 2,2.365 2,3.999c0,2.717 -2.171,4.93 -4.871,4.999l-0.129,0.001m0,-2c1.656,0 3,-1.344 3,-3c0,-1.11 -0.604,-2.079 -1.501,-2.598c-0.309,-0.179 -0.499,-0.509 -0.499,-0.866l0,-16.596c0,-0.556 -0.451,-1.007 -1.006,-1.007c-0.556,0 -1.006,0.451 -1.006,1.007l-0,16.603c-0,0.356 -0.189,0.685 -0.496,0.864c-0.892,0.52 -1.492,1.487 -1.492,2.593c0,1.65 1.335,2.991 2.983,3c0.001,0 0.003,0 0.004,0"/><path d="M17.006,8l7.994,0.001c0.552,0 1,-0.448 1,-1c0,-0.552 -0.448,-1 -1,-1l-7.993,-0.001c-0.552,-0 -1,0.448 -1.001,1c0,0.552 0.448,1 1,1Z"/><path d="M17.006,11.987l6.217,0.001c0.552,-0 1.001,-0.448 1.001,-1c-0,-0.552 -0.448,-1 -1,-1l-6.217,-0.001c-0.552,-0 -1,0.448 -1.001,0.999c0,0.552 0.448,1.001 1,1.001Z"/><path d="M17.006,15.973l7.994,0.001c0.552,0 1,-0.448 1,-1c0,-0.552 -0.448,-1 -1,-1l-7.993,-0.001c-0.552,0 -1,0.448 -1.001,1c0,0.552 0.448,1 1,1Z"/><path d="M17.006,19.96l6.217,0.001c0.552,-0 1.001,-0.448 1.001,-1c-0,-0.552 -0.448,-1 -1,-1l-6.217,-0.001c-0.552,-0 -1,0.448 -1.001,1c0,0.552 0.448,1 1,1Z"/><circle cx="11.001" cy="25.008" r="1"/></svg>