<?xml version="1.0" encoding="utf-8"?>
<!-- Uploaded to: SVG Repo, www.svgrepo.com, Generator: SVG Repo Mixer Tools -->
<svg width="800px" height="800px" viewBox="0 -398 1820 1820" class="icon"  version="1.1" xmlns="http://www.w3.org/2000/svg"><path d="M845.937778 285.866667c-160.237037 0-291.271111 131.034074-291.271111 291.271111s131.034074 291.271111 291.271111 291.271111 291.271111-131.034074 291.271111-291.271111-131.034074-291.271111-291.271111-291.271111z m-16.213334 35.65037v110.08c-30.72-1.611852-58.216296-8.059259-84.10074-16.213333 21.048889-50.157037 50.157037-84.195556 84.10074-93.866667z m-1.611851 142.411852v97.09037H716.515556c1.611852-42.097778 8.059259-82.488889 17.825185-116.527407 29.108148 11.282963 59.828148 17.825185 93.771852 19.437037z m-71.205926-129.517037c-14.601481 17.825185-27.496296 40.485926-38.874074 66.37037-12.98963-6.447407-24.272593-14.601481-35.555556-24.272592 22.660741-17.825185 46.933333-32.331852 74.42963-42.097778zM658.204444 399.17037c12.98963 12.98963 29.108148 22.660741 46.933334 32.331852-12.98963 38.874074-19.437037 82.488889-21.048889 129.422222H586.998519c4.93037-63.051852 30.814815-119.656296 71.205925-161.754074z m-69.594074 194.180741h97.090371c1.611852 46.933333 9.671111 90.642963 21.048889 129.422222-17.825185 9.671111-33.943704 19.437037-46.933334 32.331852-42.002963-42.002963-67.887407-98.607407-71.205926-161.754074z m93.866667 184.50963c9.671111-8.059259 22.660741-16.213333 35.555556-24.272593 11.282963 25.884444 24.272593 48.545185 38.874074 66.370371-27.496296-9.765926-51.768889-24.367407-74.42963-42.097778z m147.247407 54.992592c-33.943704-8.059259-63.146667-43.70963-84.10074-93.866666 25.884444-9.671111 53.380741-14.601481 84.10074-16.213334v110.08z m1.611852-142.411852h-1.611852c-33.943704 1.611852-66.37037 8.059259-93.866666 19.437038-9.671111-33.943704-16.213333-74.42963-17.825185-116.527408h113.303703v97.09037z m178.062223-313.931851c-9.671111 8.059259-22.660741 16.213333-35.555556 24.272592-11.282963-25.884444-24.272593-48.545185-38.874074-66.37037 27.496296 9.765926 51.768889 24.272593 74.42963 42.097778z m-34.038519 216.841481c-1.611852 42.097778-8.059259 82.488889-17.825185 116.527408-29.108148-11.282963-59.828148-17.825185-93.866667-19.437038V593.351111h111.691852zM862.151111 321.517037c33.943704 8.059259 63.146667 43.70963 84.100741 93.866667-25.884444 9.671111-53.380741 14.601481-84.100741 16.213333V321.517037z m-1.611852 142.411852h1.611852c33.943704-1.611852 66.37037-8.059259 93.866667-19.437037 9.671111 33.943704 16.213333 74.42963 17.825185 116.527407H860.539259V463.928889z m1.611852 368.924444V722.773333c30.72 1.611852 58.216296 8.059259 84.100741 16.213334-21.048889 51.768889-50.157037 85.807407-84.100741 93.866666z m72.817778-12.989629c14.601481-17.825185 27.496296-40.485926 38.874074-66.370371 12.98963 6.447407 24.272593 14.601481 35.555556 24.272593-22.660741 17.825185-46.933333 32.426667-74.42963 42.097778z m98.702222-64.663704c-12.98963-12.98963-29.108148-22.660741-46.933333-32.331852 12.98963-38.874074 19.437037-82.488889 21.048889-129.422222h97.09037c-4.93037 63.051852-30.814815 119.656296-71.205926 161.754074z m-25.884444-194.180741c-1.611852-46.933333-9.671111-90.642963-21.048889-129.422222 17.825185-9.671111 33.943704-19.437037 46.933333-32.331852 40.485926 42.097778 67.982222 98.702222 71.205926 161.848889h-97.09037z" fill="#FFA28D" /><path d="M975.36 156.444444c-93.866667 0-176.355556 43.70963-229.736296 113.303704 24.272593-8.059259 50.157037-12.98963 76.041481-14.601481-3.223704-1.611852-6.447407-4.835556-9.671111-6.447408 22.660741-17.825185 46.933333-32.331852 74.42963-42.097778-11.282963 12.98963-21.048889 30.72-30.72 48.545186 11.282963 0 22.660741 1.611852 33.943703 3.223703 19.437037-35.555556 43.70963-58.216296 71.205926-64.758518v82.488889c11.282963 4.835556 22.660741 8.059259 32.331852 14.601481V193.706667c33.943704 8.059259 63.146667 43.70963 84.100741 93.866666-19.437037 8.059259-40.485926 12.98963-63.146667 14.601482 12.98963 8.059259 25.884444 16.213333 37.262222 25.884444 12.98963-3.223704 25.884444-6.447407 37.262223-11.282963 6.447407 19.437037 9.671111 40.485926 12.989629 61.534815 19.437037 24.272593 35.555556 53.380741 46.933334 85.807408h84.10074c-3.223704 61.534815-29.108148 114.915556-67.982222 156.918518-3.223704 19.437037-6.447407 38.874074-12.989629 56.604444 69.594074-53.380741 113.303704-135.964444 113.303703-229.736296 1.611852-160.426667-129.422222-291.460741-289.659259-291.460741z m89.031111 48.545186c27.496296 9.671111 51.768889 24.272593 74.42963 42.097777-9.671111 8.059259-22.660741 16.213333-35.555556 24.272593-9.765926-25.884444-22.660741-48.545185-38.874074-66.37037z m72.817778 226.512592c-1.611852-46.933333-9.671111-90.642963-21.048889-129.422222 17.825185-9.671111 33.943704-19.437037 46.933333-32.331852 40.485926 42.097778 67.982222 98.702222 71.205926 161.848889h-97.09037z" fill="#5FFFBA" /></svg>