<?xml version="1.0" encoding="iso-8859-1"?>
<!-- Uploaded to: SVG Repo, www.svgrepo.com, Generator: SVG Repo Mixer Tools -->
<!DOCTYPE svg PUBLIC "-//W3C//DTD SVG 1.1//EN" "http://www.w3.org/Graphics/SVG/1.1/DTD/svg11.dtd">
<svg fill="#000000" height="800px" width="800px" version="1.1" id="Capa_1" xmlns="http://www.w3.org/2000/svg" xmlns:xlink="http://www.w3.org/1999/xlink" 
	 viewBox="0 0 490.707 490.707" xml:space="preserve">
<g>
	<path d="M98.588,118.527c0.345-0.021,34.589-2.172,48.705,8.673c0.049,0.038,0.103,0.063,0.153,0.099
		c10.058,8.367,22.976,13.408,37.052,13.408c13.676,0,26.473-4.842,36.551-13.02c0.092-0.057,0.187-0.104,0.275-0.17
		c15.688-11.553,53.568-9.016,53.949-8.991c2.185,0.143,4.126-1.372,4.491-3.528c6.153-36.254-7.664-67.478-39.956-90.295
		C216.204,8.025,191.241,1.72,189.451,1.282C187.157,0.659,182.912,0,180.164,0c-8.411,0-13.955,3.912-17.929,8.021
		c-2.622-0.904-5.348-1.369-8.144-1.369c-6.64,0-12.895,2.534-17.633,7.141c-1.525,1.301-14.538,12.628-26.171,30.077
		c-16.282,24.423-21.849,49.139-16.098,71.477C94.698,117.327,96.547,118.666,98.588,118.527z M134.972,82.682
		c0-13.618,5.554-26.475,15.329-35.807c14.837,14.221,45.746,40.174,81.824,49.395c-5.99,21.029-25.451,35.938-47.629,35.938
		C157.189,132.207,134.972,109.99,134.972,82.682z M142.056,20.19c0.085-0.072,0.168-0.147,0.248-0.226
		c3.151-3.104,7.337-4.813,11.787-4.813c2.571,0,5.061,0.588,7.402,1.748c1.788,0.885,3.891,0.386,5.123-1.073l0.009,0.008
		c4.403-5.21,8.326-7.335,13.538-7.335c1.761,0,5.275,0.492,7.094,0.994c0.045,0.013,0.09,0.024,0.136,0.035
		c0.246,0.06,24.849,6.106,47.51,22.116c28.733,20.302,41.181,46.601,37.041,78.21c-7.367-0.25-23.674-0.29-38.064,3.274
		c2.858-4.61,5.083-9.668,6.564-15.06c4.882,0.863,9.839,1.402,14.848,1.533c0.038,0.002,0.076,0.002,0.113,0.002
		c2.296,0,4.186-1.83,4.247-4.139c0.062-2.347-1.79-4.298-4.137-4.36c-55.96-1.468-107.67-58.829-108.187-59.408
		c-1.561-1.753-4.247-1.907-5.999-0.35c-1.753,1.561-1.911,4.245-0.351,5.999c0.286,0.321,1.421,1.584,3.3,3.532
		c-11.356,10.92-17.806,25.918-17.806,41.802c0,11.042,3.103,21.373,8.479,30.169c-12.754-3.096-26.785-3.154-33.293-2.964
		C92.293,62.762,141.547,20.618,142.056,20.19z"/>
	<path d="M138.169,167.549l-72.393,74.414c-9.598,9.857-9.388,25.687,0.468,35.285c1.817,1.77,3.837,3.205,5.983,4.31H18.022
		c-8.96,0-16.25,7.29-16.25,16.25v176.649c0,8.96,7.29,16.25,16.25,16.25h454.662c8.96,0,16.25-7.29,16.25-16.25V297.808
		c0-8.96-7.29-16.25-16.25-16.25h-41.538c8.474-6.452,13.957-16.642,13.957-28.09v-5.133c3.207,1.454,6.362,2.206,9.328,2.206
		c2.995,0,5.8-0.749,8.276-2.263c5.314-3.249,8.197-9.439,8.119-17.43c-0.07-7.194-2.572-15.183-7.044-22.493
		c-9.168-14.987-23.609-22.574-33.95-18.287c-6.342-4.341-13.832-6.861-21.854-6.861c-8.023,0-15.513,2.52-21.855,6.861
		c-10.343-4.287-24.782,3.301-33.95,18.287c-0.697,1.139-1.34,2.296-1.939,3.463c-14.182,1.063-26.049,10.536-30.616,23.441
		l-19.939,22.37c-1.561,1.753-1.407,4.439,0.345,6.001c0.81,0.722,1.82,1.077,2.826,1.077c1.17,0,2.335-0.48,3.174-1.422
		l11.577-12.989v3.172c0,11.448,5.483,21.638,13.957,28.09h-55.746l-19.602-66.866l47.36,8.972c1.672,0.316,3.349,0.474,5.015,0.474
		c5.297,0,10.471-1.585,14.943-4.633c5.879-4.007,9.846-10.064,11.169-17.054c1.325-6.989-0.152-14.077-4.159-19.957
		c-4.007-5.88-10.064-9.847-17.057-11.171l-112.25-21.23c-4.74-0.979-9.643-1.506-14.636-1.506
		C167.939,148.586,150.18,156.046,138.169,167.549z M456.532,212.791c3.682,6.019,5.74,12.461,5.795,18.141
		c0.027,2.827-0.462,7.899-4.054,10.095c-2.59,1.585-6.405,1.245-10.539-0.847c0.966-3.816,1.494-7.827,1.494-11.973
		c0-11.777-4.174-22.508-10.987-30.537C443.903,198.798,451.114,203.935,456.532,212.791z M440.729,228.207
		c0,20.126-14.691,36.5-32.75,36.5c-18.059,0-32.75-16.374-32.75-36.5s14.691-36.5,32.75-36.5
		C426.037,191.707,440.729,208.081,440.729,228.207z M359.425,212.791c5.418-8.855,12.629-13.992,18.29-15.121
		c-6.813,8.029-10.987,18.759-10.987,30.537c0,4.145,0.527,8.157,1.494,11.973c-4.133,2.092-7.948,2.432-10.539,0.847
		c-3.591-2.195-4.081-7.268-4.053-10.095C353.686,225.252,355.744,218.81,359.425,212.791z M326.104,253.468V247
		c0-12.609,8.759-23.206,20.511-26.042c-0.943,3.367-1.453,6.707-1.484,9.891c-0.078,7.991,2.805,14.181,8.119,17.43
		c2.477,1.514,5.28,2.264,8.276,2.263c3.029,0,6.255-0.785,9.532-2.301c6.769,14.784,20.772,24.967,36.922,24.967
		c10.432,0,19.966-4.255,27.238-11.247c-3.561,10.623-13.6,18.302-25.406,18.302h-56.913
		C338.123,280.262,326.104,268.242,326.104,253.468z M132.114,193.232c2.564-9.101,8.342-17.114,16.161-23.271v42.084
		c-12.83,2.044-22.667,13.183-22.667,26.578v30.592c0,2.348,1.903,4.25,4.25,4.25h10.667c2.347,0,4.25-1.902,4.25-4.25
		c0-2.348-1.903-4.25-4.25-4.25h-6.417v-26.342c0-10.155,8.262-18.417,18.417-18.417s18.417,8.262,18.417,18.417v26.342h-6.417
		c-2.347,0-4.25,1.902-4.25,4.25c0,2.348,1.903,4.25,4.25,4.25h10.667c2.347,0,4.25-1.902,4.25-4.25v-30.592
		c0-13.395-9.837-24.534-22.667-26.578v-47.607c0.6-0.319,1.206-0.63,1.821-0.931l24.58,42.574c0.759,1.315,2.162,2.125,3.681,2.125
		c1.519,0,2.921-0.81,3.681-2.125l24.454-42.355c1.46,0.732,2.884,1.513,4.261,2.349c-0.086,0.337-0.146,0.684-0.146,1.047v67.525
		c-7.645,1.908-13.333,8.814-13.333,17.043c0,9.694,7.888,17.582,17.583,17.582s17.583-7.888,17.583-17.582
		c0-8.229-5.688-15.135-13.333-17.043v-62.362c6.431,5.804,11.19,12.973,13.471,20.989l25.88,88.282H106.215L132.114,193.232z
		 M223.356,242.607c5.008,0,9.083,4.075,9.083,9.084c0,5.008-4.075,9.082-9.083,9.082s-9.083-4.074-9.083-9.082
		C214.273,246.683,218.348,242.607,223.356,242.607z M311.904,179.674c4.761,0.901,8.885,3.603,11.613,7.607
		c2.728,4.003,3.733,8.828,2.831,13.589c-0.901,4.759-3.602,8.883-7.604,11.61c-4.003,2.727-8.829,3.735-13.589,2.832l-51.627-9.78
		l-4.284-14.614c-2.922-10.271-9.25-19.355-17.76-26.454L311.904,179.674z M207.078,160.432l-20.222,35.025l-20.309-35.178
		c6.289-2.061,13.071-3.435,20.052-3.193C194.354,157.354,207.078,160.432,207.078,160.432z M71.868,247.89l50.638-52.097
		l-19.876,67.784l-7.189,7.273c-6.33,6.499-16.767,6.639-23.266,0.309C65.676,264.829,65.537,254.393,71.868,247.89z
		 M97.844,279.897l-0.487,1.661h-2.285C96.024,281.068,96.95,280.516,97.844,279.897z M472.685,482.207H18.022
		c-4.273,0-7.75-3.477-7.75-7.75v-121.75h154.081c2.347,0,4.25-1.902,4.25-4.25c0-2.348-1.903-4.25-4.25-4.25H10.272v-20.5h436.081
		c2.347,0,4.25-1.902,4.25-4.25c0-2.348-1.903-4.25-4.25-4.25H10.272v-17.399c0-4.273,3.477-7.75,7.75-7.75h454.662
		c4.273,0,7.75,3.477,7.75,7.75v124.399h-53.75c-2.347,0-4.25,1.902-4.25,4.25c0,2.348,1.903,4.25,4.25,4.25h53.75v17.5H349.354
		c-2.347,0-4.25,1.902-4.25,4.25c0,2.348,1.903,4.25,4.25,4.25h131.081v17.75C480.435,478.73,476.958,482.207,472.685,482.207z"/>
</g>
</svg>